<svg xmlns="http://www.w3.org/2000/svg" xmlns:xlink="http://www.w3.org/1999/xlink" width="273.071214" height="93.972163" viewBox="0 0 72.250092 24.863468">
  <defs>
    <linearGradient id="a">
      <stop offset="0" stop-color="#ffa300"/>
      <stop offset="1" stop-color="#0018ff" stop-opacity=".652807"/>
    </linearGradient>
    <linearGradient xlink:href="#a" id="b" x1="144.36926" x2="144.36926" y1="41.204102" y2="27.675938" gradientUnits="userSpaceOnUse"/>
    <linearGradient xlink:href="#a" id="d" x1="144.36926" x2="144.36926" y1="41.204102" y2="27.675938" gradientUnits="userSpaceOnUse"/>
    <linearGradient xlink:href="#a" id="c" x1="144.36926" x2="144.36926" y1="41.204102" y2="27.675938" gradientUnits="userSpaceOnUse"/>
    <linearGradient xlink:href="#a" id="f" x1="144.36926" x2="144.36926" y1="41.204102" y2="27.675938" gradientUnits="userSpaceOnUse"/>
    <linearGradient xlink:href="#a" id="e" x1="144.36926" x2="144.36926" y1="41.204102" y2="27.675938" gradientUnits="userSpaceOnUse"/>
    <linearGradient xlink:href="#a" id="h" x1="144.36926" x2="144.36926" y1="41.204102" y2="27.675938" gradientUnits="userSpaceOnUse"/>
    <linearGradient xlink:href="#a" id="g" x1="144.36926" x2="144.36926" y1="41.204102" y2="27.675938" gradientUnits="userSpaceOnUse"/>
  </defs>
  <g fill="url(#b)" stroke="none" stroke-width="2.11667" aria-label="UNO" color="#000" font-family="Alfa Slab One" font-size="28.2223" style="-inkscape-font-specification:'Alfa Slab One'" transform="translate(-65.587891 -24.816406)">
    <g fill="url(#c)">
      <path fill="url(#d)" d="M77.314647 48.621469q-4.430901 0-6.858019-1.947339-2.398895-1.947339-2.398895-6.321795v-9.45447h-1.411115v-4.628458h10.44225v4.628458h-1.128892v10.893807q0 .931336.395113 1.382893.423334.423334 1.241781.423334.818446 0 1.213559-.423334.423334-.451557.423334-1.382893V30.897865h-1.128892v-4.628458h9.680249v4.628458h-1.411115v9.45447q0 4.374456-2.342451 6.321795-2.342451 1.947339-6.716907 1.947339z" style="-inkscape-font-specification:'Alfa Slab One';-inkscape-stroke:none"/>
      <path fill="#3f3f3f" d="M65.587891 25.210937v6.746094H67v8.394531c0 3.10976.888736 5.601913 2.789062 7.144532l.002.002.0039.002c1.86327 1.49495 4.410558 2.179687 7.519531 2.179687 3.073344 0 5.583858-.686147 7.394531-2.191406 1.861204-1.547266 2.722657-4.03151 2.722657-7.136719v-8.394625h1.412069v-6.746094H77.046875Zm2.117187 2.117188h8.326172v2.511719h-1.128906v11.951172c0 .770553.155396 1.507674.65625 2.080078l.02344.02734.02539.02539c.523359.52336 1.262132.732422 1.990234.732422.727477 0 1.472293-.212118 1.984375-.759766h.002c.529153-.565694.708985-1.325094.708985-2.105468V29.839844h-1.128907v-2.511719h7.5625v2.511719h-1.410156v10.511718c0 2.727395-.698876 4.45863-1.960937 5.507813-1.312591 1.09119-3.281758 1.703125-6.041016 1.703125-2.796751 0-4.818577-.611024-6.191406-1.710938-1.298197-1.053831-2.007813-2.777157-2.007813-5.5V29.839844h-1.410156zm9.3125 4.628906H78.175787v9.833985c0 .460536-.102798.623974-.136719.660156h-.002v.002c-.0147.01575-.07629.08594-.439453.08594-.332958 0-.40669-.06175-.453125-.103515-.03316-.04646-.126953-.202678-.126953-.644531z" style="-inkscape-font-specification:'Alfa Slab One';-inkscape-stroke:none"/>
    </g>
    <g fill="url(#e)">
      <path fill="url(#f)" d="M105.05712 26.269407h9.25691v4.628458h-1.41111v17.328492h-7.93047l-8.269133-12.728258v8.0998h1.354671v4.628458h-9.256914v-4.628458h1.411115V30.897865h-1.411115v-4.628458h10.18825l7.422466 11.317143v-6.688685h-1.35467z" style="-inkscape-font-specification:'Alfa Slab One';-inkscape-stroke:none"/>
      <path fill="#3f3f3f" d="M87.742187 25.210937v6.746094h1.41211v10.582031h-1.41211v6.746094h11.375v-6.746094h-1.355468v-3.470703l6.636721 10.216797h9.5625V31.957031h1.41211v-6.746094h-11.375v6.746094h1.35547v2.085938l-5.792973-8.832032zm2.117188 2.117188h8.558594l9.052731 13.802734V29.839844h-1.35547v-2.511719h7.14063v2.511719h-1.41211v17.328125h-6.29687l-9.902349-15.242188V44.65625H97v2.511719h-7.140625V44.65625h1.412109V29.839844h-1.412109z" style="-inkscape-font-specification:'Alfa Slab One';-inkscape-stroke:none"/>
    </g>
    <g fill="url(#g)">
      <path fill="url(#h)" d="M125.99805 48.621469q-5.16468 0-7.98691-2.709341-2.79401-2.709341-2.79401-8.664246t2.79401-8.664246q2.82223-2.709341 7.98691-2.709341 5.16468 0 7.95869 2.709341 2.82223 2.709341 2.82223 8.664246t-2.82223 8.664246q-2.79401 2.709341-7.95869 2.709341zm0-5.02357q.95956 0 1.43934-.508001.47977-.508001.47977-1.580449v-8.523134q0-1.072448-.47977-1.580449-.47978-.508001-1.43934-.508001-.95956 0-1.43934.508001-.47978.508001-.47978 1.580449v8.523134q0 1.10067.47978 1.608671.47978.479779 1.43934.479779z" style="-inkscape-font-specification:'Alfa Slab One';-inkscape-stroke:none"/>
      <path fill="#3f3f3f" d="M125.99805 24.816406c-3.62818 0-6.60656.974324-8.72071 3.003906l-.002.002-.002.002c-2.14086 2.075985-3.11524 5.288374-3.11524 9.423828s.97438 7.347843 3.11524 9.423828l.002.002.002.002c2.11415 2.029583 5.09253 3.003906 8.72071 3.003906 3.62597 0 6.59498-.973334 8.6914-3.003906l.004-.0039c2.15818-2.074614 3.14453-5.289217 3.14453-9.423828 0-4.13461-.98635-7.349214-3.14453-9.423828-2.09663-2.033098-5.06713-3.007813-8.69531-3.007813zm0 2.117188c3.25805 0 5.59394.830803 7.22265 2.410156l.002.002.002.002c1.60204 1.537963 2.49609 4.097652 2.49609 7.900391s-.89405 6.362428-2.49609 7.90039l-.002.002-.002.002c-1.62871 1.579353-3.9646 2.410156-7.22265 2.410156-3.25682 0-5.60323-.830415-7.25196-2.412109-1.58337-1.536658-2.4707-4.099346-2.4707-7.902344 0-3.802998.88733-6.365686 2.4707-7.902344 1.64873-1.581694 3.99514-2.412109 7.25196-2.412109zm0 2.90625c-.82647 0-1.6473.245121-2.20899.839843-.57512.608949-.76758 1.433855-.76758 2.306641v8.523438c0 .887554.18575 1.719876.76758 2.335937l.01.0098.0117.01172c.5693.569304 1.3714.789063 2.1875.789063.82647 0 1.6473-.245121 2.20898-.839844.57511-.60895.76758-1.433857.76758-2.30664v-8.523438c0-.872783-.19247-1.69769-.76758-2.306641-.56168-.594722-1.38251-.839843-2.20898-.839843zm0 2.117187c.45294 0 .5919.09317.66992.175781.0646.06838.19141.29637.19141.853516v8.523438c0 .557146-.12683.785132-.19141.853515-.078.08261-.21698.175782-.66992.175781-.45161 0-.60079-.09605-.67383-.166015-.0596-.06714-.1875-.294864-.1875-.863281v-8.523438c0-.557143.12682-.78513.19141-.853516.078-.08261.21698-.175781.66992-.175781z" style="-inkscape-font-specification:'Alfa Slab One';-inkscape-stroke:none"/>
    </g>
  </g>
</svg>
